<svg xmlns="http://www.w3.org/2000/svg" width="965.353" height="690.003" viewBox="0 0 965.353 690.003">
  <g id="undraw_online_page_cq94" transform="translate(0 0)">
    <path id="Path_365" data-name="Path 365" d="M220.676,681.319c0,38.918-23.136,52.507-51.676,52.507s-51.676-13.589-51.676-52.507S169,592.89,169,592.89,220.676,642.4,220.676,681.319Z" transform="translate(-117.324 -104.999)" fill="#f2f2f2"/>
    <path id="Path_366" data-name="Path 366" d="M49.794,622.874l.529-32.571,22.026-40.295L50.406,585.193l.238-14.645L65.824,541.4,50.707,566.672h0l.428-26.341L67.39,517.123,51.2,536.19l.267-48.3-1.68,63.938.138-2.637L33.4,523.9l16.261,30.36-1.54,29.418-.045-.781L29.024,556.272l19,29.379-.193,3.679-.034.055.016.3L43.9,664.322h5.22l.626-38.55,18.948-29.308Z" fill="#3f3d56"/>
    <path id="Path_367" data-name="Path 367" d="M628.119,181.264C763.793,289.373,786.139,487,678.031,622.672S240.663,846.016,236.623,672.584c-4.066-174.543-93.881-338.111-49.912-441.408C254.654,71.555,492.445,73.155,628.119,181.264Z" transform="translate(-117.324 -104.999)" fill="#1a202c" opacity="0.05"/>
    <ellipse id="Ellipse_40" data-name="Ellipse 40" cx="144" cy="24" rx="144" ry="24" transform="translate(6.353 642.003)" fill="#4a5568"/>
    <ellipse id="Ellipse_41" data-name="Ellipse 41" cx="70.914" cy="11.819" rx="70.914" ry="11.819" transform="translate(815.848 646.137)" fill="#3f3d56"/>
    <path id="Path_384" data-name="Path 384" d="M0,0H822V444H0Z" transform="translate(143.353 160.003)" fill="#a0aec0"/>
    <rect id="Rectangle_293" data-name="Rectangle 293" width="822" height="41" transform="translate(143.353 124.003)" fill="#1a202c"/>
    <circle id="Ellipse_42" data-name="Ellipse 42" cx="7" cy="7" r="7" transform="translate(156.353 135.003)" fill="#cbd5e0"/>
    <circle id="Ellipse_43" data-name="Ellipse 43" cx="7" cy="7" r="7" transform="translate(176.353 135.003)" fill="#cbd5e0"/>
    <circle id="Ellipse_44" data-name="Ellipse 44" cx="7" cy="7" r="7" transform="translate(196.353 135.003)" fill="#cbd5e0"/>
    <rect id="Rectangle_294" data-name="Rectangle 294" width="822" height="5" transform="translate(143.353 160.003)" opacity="0.1"/>
    <rect id="Rectangle_295" data-name="Rectangle 295" width="162" height="173" transform="translate(190.853 230.503)" fill="#4a5568" opacity="0.3"/>
    <rect id="Rectangle_296" data-name="Rectangle 296" width="162" height="173" transform="translate(201.853 218.503)" fill="#2d3748"/>
    <rect id="Rectangle_297" data-name="Rectangle 297" width="124.543" height="133" transform="translate(784.853 227.728)" fill="#4a5568" opacity="0.3"/>
    <rect id="Rectangle_298" data-name="Rectangle 298" width="124.543" height="133" transform="translate(793.309 218.503)" fill="#2d3748"/>
    <rect id="Rectangle_299" data-name="Rectangle 299" width="124.543" height="133" transform="translate(784.853 412.503)" fill="#4a5568" opacity="0.3"/>
    <rect id="Rectangle_300" data-name="Rectangle 300" width="124.543" height="133" transform="translate(793.309 403.277)" fill="#2d3748"/>
    <rect id="Rectangle_301" data-name="Rectangle 301" width="309" height="12" transform="translate(420.853 218.503)" fill="#e2e8f0"/>
    <rect id="Rectangle_302" data-name="Rectangle 302" width="309" height="12" transform="translate(420.853 253.503)" fill="#e2e8f0"/>
    <rect id="Rectangle_303" data-name="Rectangle 303" width="309" height="12" transform="translate(420.853 288.503)" fill="#e2e8f0"/>
    <rect id="Rectangle_304" data-name="Rectangle 304" width="309" height="12" transform="translate(420.853 323.503)" fill="#e2e8f0"/>
    <rect id="Rectangle_305" data-name="Rectangle 305" width="309" height="12" transform="translate(420.853 358.503)" fill="#e2e8f0"/>
    <rect id="Rectangle_306" data-name="Rectangle 306" width="309" height="12" transform="translate(420.853 393.503)" fill="#e2e8f0"/>
    <rect id="Rectangle_307" data-name="Rectangle 307" width="309" height="12" transform="translate(420.853 428.503)" fill="#e2e8f0"/>
    <rect id="Rectangle_308" data-name="Rectangle 308" width="309" height="12" transform="translate(420.853 463.503)" fill="#e2e8f0"/>
    <rect id="Rectangle_309" data-name="Rectangle 309" width="309" height="12" transform="translate(420.853 498.503)" fill="#e2e8f0"/>
    <rect id="Rectangle_310" data-name="Rectangle 310" width="309" height="12" transform="translate(420.853 533.503)" fill="#e2e8f0"/>
    <circle id="Ellipse_45" data-name="Ellipse 45" cx="21.5" cy="21.5" r="21.5" transform="translate(104.839 269.882)" fill="#a0616a"/>
    <path id="Path_368" data-name="Path 368" d="M229.751,406.5s0,22.765-3.794,25.294,30.353,5.059,30.353,5.059V407.763Z" transform="translate(-117.324 -104.999)" fill="#a0616a"/>
    <path id="Path_369" data-name="Path 369" d="M188.015,532.969s24.03,27.824,29.089,27.824,10.118-18.971,10.118-18.971l-24.029-17.706Z" transform="translate(-117.324 -104.999)" fill="#a0616a"/>
    <path id="Path_370" data-name="Path 370" d="M308.163,407.763l3.794-26.559s2.529-36.677,10.118-27.824,2.529,29.088,2.529,29.088,3.794,29.088,0,32.883S308.163,407.763,308.163,407.763Z" transform="translate(-117.324 -104.999)" fill="#a0616a"/>
    <path id="Path_371" data-name="Path 371" d="M286.663,550.675l-68.294-6.324s-8.853,41.735-6.324,58.177,3.794,63.235,3.794,63.235,2.529,84.736,6.324,89.794,16.441,3.794,20.235,6.324,10.118-5.059,10.118-6.324-7.588-1.265-3.794-8.853S238.6,717.617,242.4,707.5s10.118-24.029,6.324-29.088,2.529-69.559,2.529-69.559,31.618,45.53,31.618,65.765-2.529,67.03-3.794,72.089-2.529,6.324,0,10.118,5.059,7.588,3.794,8.853,22.765,0,22.765-7.588-1.265-7.588,1.265-13.912,3.794-82.206,3.794-82.206Z" transform="translate(-117.324 -104.999)" fill="#2f2e41"/>
    <path id="Path_372" data-name="Path 372" d="M225.957,422.939l-3.794,7.588s-40.471,12.647-41.736,39.206l34.147,56.912s2.529,3.794,1.265,6.324-2.529,1.265-1.265,5.059,1.265,2.529,1.265,5.059-3.794,1.265,0,2.529-1.265,0,12.647,3.794,55.647,2.529,55.647,2.529l-7.588-73.353,7.589-15.176-10.118-30.353s-6.324-1.265-10.118,1.265-8.853-2.529-8.853-2.529S248.722,422.939,225.957,422.939Z" transform="translate(-117.324 -104.999)" fill="#575a89"/>
    <path id="Path_373" data-name="Path 373" d="M267.692,434.322l6.324-1.265s25.294-7.588,26.559-13.912,7.588-13.912,7.588-13.912,20.235-5.059,18.971,11.382-6.324,21.5-8.853,24.03-30.352,22.764-35.411,22.764S267.692,434.322,267.692,434.322Z" transform="translate(-117.324 -104.999)" fill="#575a89"/>
    <path id="Path_374" data-name="Path 374" d="M182.957,464.675l-2.529,5.059-1.265,45.53s-7.588,5.059-3.794,7.588,12.647,13.912,15.176,13.912,16.441-6.324,16.441-8.853-2.529-25.294-2.529-25.294Z" transform="translate(-117.324 -104.999)" fill="#575a89"/>
    <path id="Path_375" data-name="Path 375" d="M229.751,755.558s0,12.647-1.265,15.177-3.794,15.177,3.794,15.177a30.689,30.689,0,0,0,12.647-2.529s0-7.588,3.794-8.853,12.647-11.382,8.853-13.912-11.382-5.059-11.382-5.059Z" transform="translate(-117.324 -104.999)" fill="#2f2e41"/>
    <path id="Path_376" data-name="Path 376" d="M284.134,761.882s-7.588,17.706,0,18.971,17.706,0,18.971-2.529,3.794-5.059,6.324-3.794,24.029-13.912,16.441-16.441a21.9,21.9,0,0,0-13.912,0l-7.588-3.794Z" transform="translate(-117.324 -104.999)" fill="#2f2e41"/>
    <path id="Path_377" data-name="Path 377" d="M246.381,420.078a2.6,2.6,0,0,0,1.029-.284,2.659,2.659,0,0,0,.959-1.66l2.583-9.151c.98-3.472,2.554-7.528,6.087-8.262a5.741,5.741,0,0,0,2.132-.567,3.69,3.69,0,0,0,1.158-2.854l1.107-11.828c.3-3.2.583-6.523-.532-9.535-1.645-4.443-6.157-7.368-10.819-8.209s-9.465.1-14,1.459c-6.884,2.062-14.013,5.613-17,12.147-1.732,3.783-1.838,8.1-1.607,12.251.238,4.277.833,8.638,2.8,12.444a37.3,37.3,0,0,0,3.791,5.572c2.135,2.763,4.753,8.166,8.287,9.2C236.329,421.961,242.344,420.6,246.381,420.078Z" transform="translate(-117.324 -104.999)" fill="#2f2e41"/>
    <path id="Path_378" data-name="Path 378" d="M947.429,688.571c0,38.029,23.857,68.8,53.341,68.8" transform="translate(-117.324 -104.999)" fill="#2f2e41"/>
    <path id="Path_379" data-name="Path 379" d="M1000.77,757.373c0-38.456,26.624-69.575,59.525-69.575" transform="translate(-117.324 -104.999)" fill="#4a5568"/>
    <path id="Path_380" data-name="Path 380" d="M966.755,692.018c0,36.124,15.213,65.354,34.014,65.354" transform="translate(-117.324 -104.999)" fill="#4a5568"/>
    <path id="Path_381" data-name="Path 381" d="M1000.77,757.373c0-49.139,30.773-88.9,68.8-88.9" transform="translate(-117.324 -104.999)" fill="#2f2e41"/>
    <path id="Path_382" data-name="Path 382" d="M989.548,757.858s7.565-.233,9.844-1.856,11.636-3.562,12.2-.958,11.368,12.949,2.828,13.018-19.844-1.33-22.119-2.716S989.548,757.858,989.548,757.858Z" transform="translate(-117.324 -104.999)" fill="#a8a8a8"/>
    <path id="Path_383" data-name="Path 383" d="M1014.57,767.155c-8.54.069-19.844-1.33-22.119-2.716-1.733-1.056-2.423-4.843-2.654-6.59l-.253.01s.479,6.1,2.755,7.487,13.579,2.785,22.119,2.716c2.465-.02,3.317-.9,3.27-2.2C1017.35,766.65,1016.41,767.14,1014.57,767.155Z" transform="translate(-117.324 -104.999)" opacity="0.2"/>
  </g>
</svg>
